<?xml version="1.0" standalone="no"?>
<!DOCTYPE svg PUBLIC "-//W3C//DTD SVG 20010904//EN"
 "http://www.w3.org/TR/2001/REC-SVG-20010904/DTD/svg10.dtd">
<svg version="1.0" xmlns="http://www.w3.org/2000/svg"
 width="900.000000pt" height="900.000000pt" viewBox="0 0 900.000000 900.000000"
 preserveAspectRatio="xMidYMid meet">
<metadata>
Created by potrace 1.11, written by Peter Selinger 2001-2013
</metadata>
<g transform="translate(0.000000,900.000000) scale(0.100000,-0.100000)"
fill="#000000" stroke="none">
<path d="M4265 8744 c-22 -2 -98 -9 -170 -15 -282 -23 -650 -100 -932 -194
-678 -227 -1273 -609 -1770 -1138 -636 -677 -1028 -1546 -1125 -2497 -16 -161
-16 -639 0 -800 119 -1163 677 -2195 1577 -2917 387 -311 842 -558 1318 -718
277 -92 625 -166 937 -197 161 -16 639 -16 800 0 1049 106 1988 568 2704 1331
146 156 297 346 415 521 127 188 185 288 286 490 224 448 359 909 422 1438 24
206 24 698 0 904 -85 720 -314 1344 -708 1928 -299 444 -697 842 -1139 1139
-188 127 -286 184 -489 285 -454 227 -925 365 -1437 422 -131 14 -601 27 -689
18z m535 -854 c519 -48 1011 -208 1458 -477 125 -76 363 -244 359 -255 -4 -12
-691 -528 -703 -528 -6 0 -68 33 -138 74 -282 165 -597 272 -941 322 -165 24
-505 24 -670 0 -407 -59 -801 -210 -1108 -426 l-69 -49 -38 20 c-34 18 -41 29
-64 96 -31 93 -89 191 -152 262 -51 57 -225 179 -301 212 -36 15 -43 22 -34
33 19 22 231 171 331 232 441 267 948 436 1455 483 132 12 482 13 615 1z
m2529 -552 c17 -13 184 -227 371 -477 353 -471 356 -476 329 -533 -6 -13 -113
-100 -237 -193 -125 -94 -379 -284 -564 -424 l-337 -254 -6 -56 c-27 -257
-111 -439 -282 -609 -90 -90 -132 -114 -200 -114 -91 0 -113 20 -314 289 -102
137 -191 263 -197 282 -41 118 38 230 166 238 86 6 119 -18 233 -171 53 -71
104 -135 115 -143 10 -7 35 -13 55 -13 29 0 43 7 63 31 34 41 33 73 -7 139
-51 86 -69 138 -74 226 -7 99 8 168 53 252 42 78 44 114 5 153 -33 33 -74 38
-109 13 -49 -34 -108 -160 -127 -269 -7 -38 -16 -69 -21 -68 -5 1 -29 10 -54
19 -105 37 -226 24 -323 -36 -56 -35 -57 -35 -57 -13 0 31 -40 100 -83 143
-42 42 -130 90 -166 90 -17 0 -19 8 -19 53 1 96 -43 192 -113 246 -24 18 -45
36 -47 40 -4 12 80 67 166 110 100 50 207 80 320 89 84 7 89 9 152 57 36 27
67 52 70 55 6 8 253 193 766 576 248 184 404 294 418 294 13 0 37 -10 55 -22z
m-5860 -345 c52 -26 64 -28 186 -28 72 0 218 4 325 9 230 9 287 2 405 -54 159
-76 264 -206 335 -416 40 -116 70 -302 66 -404 -3 -80 -5 -85 -169 -333 l-130
-198 -26 17 c-80 51 -120 117 -121 201 0 67 8 86 81 199 74 114 84 149 61 218
-24 70 -79 110 -156 110 -69 0 -109 -26 -161 -106 -61 -95 -142 -142 -237
-137 -51 3 -78 -12 -78 -43 0 -30 19 -58 40 -58 42 0 47 -8 36 -60 l-10 -50
-70 0 c-61 0 -79 -5 -124 -30 -29 -17 -65 -49 -82 -71 -71 -98 -68 -181 13
-358 31 -69 55 -126 53 -129 -10 -10 -279 183 -341 244 -95 94 -146 175 -257
399 -74 152 -103 200 -143 240 -27 27 -58 55 -68 60 -15 9 14 58 245 407 145
219 265 398 267 398 2 0 29 -12 60 -27z m1535 -722 c21 -12 113 -54 205 -92
91 -39 180 -77 196 -85 17 -7 95 -41 175 -75 153 -64 190 -80 243 -103 17 -8
82 -35 142 -61 125 -53 148 -71 171 -131 29 -77 -9 -174 -83 -209 -56 -27
-120 -16 -278 47 -77 31 -189 75 -250 98 -60 23 -119 46 -130 51 -11 5 -103
41 -203 79 -192 74 -222 79 -255 42 -21 -24 -29 -69 -17 -91 9 -17 89 -98 146
-148 12 -10 168 -152 347 -317 239 -219 329 -307 336 -330 18 -59 19 -77 10
-110 -27 -99 -149 -155 -236 -108 -17 9 -71 55 -120 102 -49 47 -194 186 -323
310 -129 123 -284 272 -344 331 l-108 106 113 169 c128 190 159 261 158 364 0
66 -13 186 -25 236 -7 28 -7 28 42 -12 27 -23 66 -51 88 -63z m-646 -78 c31
-27 32 -64 4 -101 l-19 -24 -39 21 c-21 12 -44 21 -51 21 -18 0 -16 7 8 46 33
55 63 66 97 37z m2930 -183 c39 -24 72 -75 72 -113 0 -62 -29 -96 -172 -203
-154 -115 -185 -127 -249 -98 -73 32 -105 107 -76 176 12 27 48 61 154 140 76
58 145 107 153 111 32 12 86 6 118 -13z m-3054 -4 c46 -19 48 -26 23 -77 -18
-37 -22 -61 -22 -144 0 -86 3 -107 24 -147 51 -99 181 -195 247 -182 27 5 31
2 42 -28 19 -54 15 -100 -15 -145 -32 -49 -58 -63 -121 -63 -78 0 -115 33
-172 154 -26 55 -68 144 -92 196 -102 216 -113 243 -113 300 0 113 96 179 199
136z m5490 -418 c175 -521 222 -1083 134 -1633 -187 -1182 -1016 -2204 -2135
-2631 l-63 -24 6 233 c6 244 6 247 79 590 19 92 35 169 35 171 0 2 31 22 69
45 168 100 401 294 542 453 349 393 559 847 635 1373 25 170 23 523 -3 694
-19 121 -19 126 -1 180 10 31 26 94 34 141 8 47 18 102 22 122 7 35 26 51 292
252 273 205 285 214 296 193 7 -12 33 -84 58 -159z m-5802 146 c15 -8 35 -25
43 -37 37 -58 227 -496 232 -538 6 -51 -9 -89 -52 -129 -23 -21 -36 -25 -90
-25 -100 0 -102 4 -237 296 -96 210 -117 262 -117 303 -2 119 113 186 221 130z
m3632 -88 c40 -16 75 -63 83 -109 11 -71 -9 -94 -247 -271 -204 -153 -224
-166 -263 -166 -104 0 -175 104 -132 194 13 27 66 72 213 183 251 190 272 200
346 169z m-4314 -317 c73 -59 408 -274 428 -274 18 0 30 -14 60 -75 31 -64 46
-81 97 -117 33 -23 79 -51 103 -63 38 -19 41 -24 35 -48 -15 -56 -7 -463 11
-587 99 -687 450 -1290 984 -1693 39 -30 72 -55 72 -57 0 -1 -18 -21 -41 -44
-69 -74 -118 -141 -128 -177 -6 -22 -6 -83 1 -171 l10 -137 78 -161 c73 -149
126 -292 114 -304 -3 -3 -51 18 -107 46 -879 449 -1526 1264 -1761 2220 -107
435 -126 908 -55 1352 22 142 60 311 68 311 3 0 17 -10 31 -21z m4496 -201
c42 -57 77 -108 78 -115 1 -10 -303 -246 -352 -272 -62 -33 -150 -4 -183 61
-47 92 -24 127 196 292 99 75 181 136 182 136 1 0 36 -46 79 -102z m289 -386
c43 -56 76 -105 73 -107 -3 -3 -83 -64 -178 -135 -200 -150 -228 -162 -296
-129 -53 25 -74 53 -81 108 -9 69 19 102 215 248 97 72 180 129 183 125 3 -4
41 -53 84 -110z m-1645 -1092 c43 -22 75 -56 90 -94 9 -25 33 -178 70 -446 6
-41 15 -102 20 -135 5 -33 14 -96 20 -140 22 -145 61 -359 81 -432 10 -40 19
-75 19 -78 0 -3 4 -5 9 -5 26 0 69 277 101 660 15 180 40 389 51 432 10 40 40
61 121 87 72 24 148 -18 182 -101 19 -44 21 -160 6 -388 -22 -364 -22 -797 1
-773 4 4 24 60 44 123 173 545 221 654 301 680 46 15 112 -8 149 -51 31 -38
32 -77 5 -225 -11 -60 -25 -131 -30 -159 -5 -27 -16 -84 -25 -125 -35 -163
-107 -509 -120 -580 -7 -42 -16 -181 -19 -315 -5 -221 -18 -355 -55 -590 -11
-64 -78 -388 -87 -417 -3 -10 -15 -18 -27 -18 -12 0 -240 -16 -506 -36 -483
-36 -483 -36 -510 -16 -21 16 -25 26 -23 56 5 49 -27 90 -104 136 -238 140
-462 309 -596 449 -194 203 -261 301 -309 455 -17 55 -65 171 -106 256 -73
150 -75 157 -70 213 8 91 69 157 158 171 57 9 122 -29 212 -123 75 -79 195
-248 241 -339 27 -53 53 -72 100 -72 29 0 36 21 36 115 0 169 -29 291 -166
702 -127 383 -177 572 -172 655 4 72 20 104 72 142 65 49 206 11 256 -68 11
-19 65 -169 119 -333 100 -303 147 -427 206 -543 33 -65 77 -120 95 -120 15 0
12 143 -5 320 -9 85 -17 166 -20 180 -3 14 -9 63 -15 110 -5 47 -18 157 -29
245 -28 223 -36 371 -22 421 6 22 26 58 46 81 53 62 123 74 205 33z"/>
</g>
</svg>
